<mxfile host="app.diagrams.net" modified="2023-06-30T06:45:08.459Z" agent="Mozilla/5.0 (Windows NT 10.0; Win64; x64) AppleWebKit/537.36 (KHTML, like Gecko) Chrome/114.0.0.0 Safari/537.36" version="21.5.2" etag="9rum6O_mOQdPIrFUa28N" type="github">
  <diagram name="ページ1" id="clkO6oaXLJQxUpyfmD5v">
    <mxGraphModel>
      <root>
        <mxCell id="0" />
        <mxCell id="1" parent="0" />
      </root>
    </mxGraphModel>
  </diagram>
</mxfile>
